<svg xmlns="http://www.w3.org/2000/svg" width="1075" height="1000" viewBox="0 0 1075 784" version="1.1">
	<path d="M 437.013 3.467 C 436.250 5.473, 436.401 7.571, 437.607 11.720 C 440.012 19.992, 439.125 25.949, 433.764 37.541 C 431.231 43.018, 429.005 48.397, 428.817 49.494 C 428.553 51.031, 426.281 52.232, 418.876 54.744 C 413.597 56.536, 406.560 58.286, 403.240 58.633 L 397.203 59.264 394.555 55.262 C 390.370 48.939, 387.841 41.138, 387.255 32.750 C 386.575 23.004, 387.911 22.602, 394.128 30.679 C 398.641 36.541, 409.051 45, 411.753 45 C 412.674 45, 411.332 43.040, 408.393 40.092 C 405.702 37.393, 401.967 32.555, 400.094 29.342 C 392.666 16.602, 392.165 16, 388.986 16 C 378.539 16, 374.820 38.006, 382.450 54.672 L 384.885 59.991 382.693 60.431 C 381.487 60.673, 378.250 61.130, 375.500 61.446 C 368.845 62.211, 360.978 66.175, 356.688 70.924 C 354.768 73.049, 350.837 79.382, 347.952 84.997 C 342.283 96.036, 339.821 98.366, 332.584 99.547 C 324.058 100.938, 317.989 106.602, 318.006 113.151 C 318.020 118.174, 324.193 138.900, 327.962 146.579 C 332.904 156.648, 337.916 161.452, 352.432 170.036 C 365.303 177.646, 374.053 185.352, 378.231 192.755 C 379.887 195.690, 381.435 197.898, 381.671 197.662 C 382.716 196.618, 377.579 184.896, 373.374 178.728 C 367.935 170.750, 362.502 165.726, 351.284 158.300 C 338.702 149.971, 333.298 141.383, 330.484 125.249 C 328.450 113.584, 328.531 112.134, 331.250 111.576 C 347.410 108.260, 350.757 105.612, 358.141 90.303 C 366.340 73.305, 369.470 70.982, 389.500 67.019 C 405.757 63.803, 415.410 61.236, 421.700 58.454 C 424.784 57.090, 427.387 56.092, 427.484 56.237 C 427.581 56.382, 428.078 58.028, 428.588 59.896 C 429.722 64.051, 432.263 65.928, 434.750 64.449 C 437.539 62.789, 442.877 51.168, 444.601 43 C 446.635 33.369, 446.125 15.996, 443.672 11.300 C 441.171 6.512, 441.467 4, 444.533 4 C 451.106 4, 463.740 14.200, 469.306 24 C 473.345 31.110, 475.266 36.674, 488.065 78.311 C 494.691 99.865, 500.412 118.400, 500.780 119.500 C 502.011 123.184, 502.714 109.870, 501.822 99.746 C 500.677 86.740, 496.347 70.414, 488.387 49.083 C 480.393 27.662, 476.382 20.198, 468.926 12.872 C 461.346 5.423, 453.580 1.655, 444.787 1.158 C 438.231 0.787, 438.006 0.854, 437.013 3.467 M 376.333 87.097 C 372.551 88.192, 368 93.266, 368 96.388 C 368 98.668, 371.301 103, 373.039 103 C 373.568 103, 374 101.720, 374 100.155 C 374 97.033, 376.211 94.597, 379.850 93.708 C 381.937 93.199, 396.780 95.446, 397.752 96.419 C 397.962 96.629, 396.641 97.295, 394.817 97.900 C 392.993 98.505, 388.800 100.835, 385.500 103.079 C 380.240 106.655, 378.923 107.117, 374.820 106.829 C 370.436 106.521, 370.239 106.610, 371.707 108.230 C 376 112.969, 385.567 110.892, 393.879 103.419 C 396.594 100.978, 400.319 98.346, 402.157 97.568 L 405.500 96.155 402.685 95.078 C 401.137 94.485, 399.562 94, 399.185 93.999 C 398.808 93.999, 395.575 92.199, 392 90 C 385.323 85.892, 382.379 85.347, 376.333 87.097 M 542.354 166.853 C 558.085 182.749, 582.168 191.023, 617.028 192.506 C 636.088 193.316, 651.457 195.495, 660.311 198.642 C 692.509 210.084, 722.181 241.194, 750.927 293.648 C 773.101 334.111, 781.870 363.675, 785.146 409.018 C 787.506 441.671, 782.783 466.840, 770.326 488.006 C 752.314 518.612, 714.380 544.371, 662.270 561.382 C 593.797 583.735, 531.400 583.137, 461.942 559.463 C 441.510 552.499, 424.935 544.611, 406.641 533.145 C 376.308 514.135, 362.010 508.330, 339.882 506.040 C 330.329 505.052, 313.464 506.113, 308.456 508.017 C 303.534 509.888, 306.140 507.035, 314.250 501.672 C 329.785 491.400, 343.943 485.547, 362.424 481.757 C 383.456 477.443, 420.989 479.691, 449.970 487 C 456.279 488.591, 461.561 489.772, 461.708 489.625 C 461.855 489.479, 458.617 487.698, 454.512 485.668 C 419.043 468.130, 365.560 465.032, 329.758 478.441 C 316.422 483.436, 305.857 490.243, 295.518 500.500 C 287.366 508.587, 277.008 522.341, 278.184 523.517 C 278.435 523.769, 281.203 523.074, 284.333 521.974 C 287.463 520.874, 294.407 519.232, 299.762 518.325 C 317.675 515.293, 343.570 519.291, 368.050 528.868 C 378.677 533.026, 389.175 538.764, 414 553.987 C 453.475 578.193, 492.582 589.786, 546.250 593.191 C 575.427 595.042, 613.350 591.840, 638.405 585.410 C 660.868 579.645, 687.797 568.382, 707.500 556.512 C 727.836 544.260, 752.325 523.189, 764.465 507.500 C 779.887 487.568, 789.399 465.413, 794.089 438.500 C 796.692 423.567, 797.145 399.459, 795.095 385 C 789.812 347.735, 775.389 309.561, 752.023 271 C 738.484 248.657, 728.643 235.700, 714 220.939 C 700.066 206.892, 690.159 199.429, 676.449 192.654 C 659.310 184.184, 650.201 182.743, 612.500 182.539 C 585.574 182.394, 582.964 182.221, 576 180.133 C 566.984 177.428, 550.528 169.669, 543.150 164.644 C 540.207 162.640, 537.521 161, 537.181 161 C 536.841 161, 539.169 163.634, 542.354 166.853 M 383.025 238.500 C 382.982 249.280, 380.286 268.350, 375.452 292.068 C 371.136 313.249, 370.156 327.500, 372.320 337.630 C 376.428 356.867, 388.852 377.370, 414.081 406.551 C 419.811 413.179, 427.244 421.774, 430.599 425.651 C 437.006 433.057, 443.002 441.293, 442.997 442.680 C 442.995 443.131, 437.482 443.599, 430.747 443.721 C 406.990 444.149, 389.610 446.917, 372.168 453.049 C 362.610 456.409, 342.921 465.861, 339 468.972 C 336.900 470.638, 337.939 470.468, 345.500 467.905 C 356.499 464.178, 375.398 459.650, 387.500 457.844 C 399.986 455.980, 434.742 456.253, 453 458.359 C 498.985 463.662, 533.413 473.137, 581.460 493.712 C 599.323 501.361, 618.096 507.573, 633 510.765 C 643.930 513.106, 647.761 513.443, 663.500 513.442 C 681.239 513.442, 681.638 513.395, 691 510.165 C 701.761 506.453, 708.980 502.650, 717.093 496.420 C 724.078 491.056, 737.192 477.119, 736.424 475.876 C 736.109 475.367, 732.706 477.665, 728.861 480.982 C 711.136 496.276, 697.548 502.566, 676.709 505.127 C 664.918 506.577, 653.466 505.410, 635.860 500.965 C 621.114 497.242, 610.533 493.421, 583.697 482.128 C 558.810 471.655, 540.556 464.803, 522.312 459.086 L 509.123 454.953 504.039 446.068 C 492.363 425.665, 488.249 413.325, 487.344 396 C 486.315 376.269, 491.449 361.866, 503.919 349.508 C 522.459 331.134, 540.384 324.390, 573.500 323.330 C 590.267 322.794, 604.094 323.725, 621 326.530 C 624.458 327.104, 624.470 327.093, 622 325.671 C 618.219 323.493, 604.812 319.287, 592.500 316.416 C 578.883 313.242, 556.517 312.109, 543.890 313.956 C 519.994 317.450, 496.171 329.987, 484.905 344.998 C 466.415 369.633, 464.506 403.570, 479.683 437.793 C 482.194 443.454, 484.080 448.240, 483.874 448.430 C 483.668 448.619, 478.100 447.861, 471.500 446.746 L 459.500 444.718 452.500 435.110 C 448.650 429.825, 438.328 416.276, 429.562 405.001 C 397.154 363.317, 389.931 352.166, 384.844 335.965 C 381.301 324.682, 381.560 303.983, 385.501 283.500 C 388.877 265.949, 389.195 252.816, 386.541 240.500 C 383.987 228.647, 383.066 228.123, 383.025 238.500 M 92.832 263.368 C 84.765 264.541, 77.898 265.767, 77.573 266.092 C 77.248 266.418, 77.840 272.493, 78.888 279.592 C 79.936 286.692, 80.503 292.811, 80.147 293.190 C 79.791 293.570, 61.775 296.370, 40.110 299.413 C 18.446 302.457, 0.619 305.071, 0.496 305.223 C -0.276 306.178, 4.458 335, 5.387 334.998 C 5.999 334.997, 24.021 332.531, 45.436 329.517 C 66.851 326.504, 84.544 324.211, 84.754 324.421 C 84.964 324.631, 86.014 330.781, 87.087 338.087 C 88.160 345.393, 89.181 351.514, 89.357 351.690 C 89.832 352.165, 119.248 347.986, 121.049 347.187 C 122.412 346.583, 121.868 341.366, 116.549 304.007 C 111.701 269.951, 110.202 261.486, 109 261.375 C 108.175 261.298, 100.899 262.195, 92.832 263.368 M 959.009 262.750 C 959.013 263.163, 956.490 281.864, 953.400 304.308 C 950.311 326.753, 947.944 345.244, 948.142 345.399 C 949.026 346.097, 1061.148 361.186, 1061.658 360.676 C 1062.312 360.021, 1073.916 277.690, 1073.431 277.140 C 1073.256 276.942, 1063.075 284.664, 1050.807 294.300 C 1038.538 303.936, 1028.363 311.686, 1028.195 311.522 C 1028.028 311.358, 1028.598 306.156, 1029.462 299.962 C 1030.326 293.767, 1030.784 288.451, 1030.481 288.148 C 1029.574 287.241, 998.559 283.176, 997.804 283.865 C 997.421 284.214, 996.568 288.775, 995.909 294 C 995.250 299.225, 994.424 304.297, 994.075 305.272 C 993.597 306.604, 989.388 301.458, 977.104 284.522 C 962.548 264.453, 958.979 260.158, 959.009 262.750 M 99.162 417.032 C 77.934 422.593, 60.882 439.213, 55.495 459.592 C 53.517 467.078, 53.499 480.795, 55.458 488.239 C 64.018 520.762, 95.217 540.001, 126.444 532.014 C 153.836 525.009, 172.334 502.009, 172.301 475 C 172.280 458.214, 166.384 444.341, 154.020 431.983 C 139.108 417.078, 119.445 411.719, 99.162 417.032 M 946 416.490 C 942.425 417.294, 935.832 419.762, 931.350 421.975 C 924.927 425.145, 921.748 427.553, 916.350 433.334 C 910.480 439.620, 908.019 443.565, 899.149 460.900 C 893.456 472.027, 888.956 481.261, 889.149 481.420 C 889.964 482.091, 989.954 533.242, 990.691 533.365 C 991.972 533.579, 1009.911 498.278, 1012.632 490.188 C 1015.590 481.393, 1015.954 467.902, 1013.485 458.535 C 1008.391 439.201, 993.798 423.766, 975.135 417.971 C 966.476 415.282, 954.160 414.656, 946 416.490 M 963.500 441.733 C 957.310 443.283, 952.337 450.653, 953.456 456.619 C 953.810 458.502, 955.463 461.597, 957.132 463.497 C 962.830 469.988, 971.191 469.964, 976.918 463.441 C 982.693 456.863, 980.516 446.881, 972.456 442.979 C 968.335 440.984, 967.150 440.819, 963.500 441.733 M 106.299 462.960 C 97.389 468.392, 98.169 482.005, 107.648 486.503 C 116.929 490.907, 127.880 482.823, 126.614 472.503 C 125.887 466.572, 119.670 460.999, 113.789 461.004 C 111.301 461.006, 108.156 461.827, 106.299 462.960 M 842 547.691 C 826.345 550.311, 810.244 560.870, 801.135 574.490 C 782.830 601.858, 790.883 638.355, 819.314 656.879 C 829.065 663.232, 835.708 665.275, 848.271 665.785 C 857.827 666.173, 859.991 665.927, 867.454 663.600 C 897.959 654.089, 916.141 622.592, 908.415 592.644 C 904.569 577.738, 891.662 561.260, 878.314 554.215 C 867.544 548.532, 852.801 545.883, 842 547.691 M 198.643 589.841 C 167.371 603.406, 141.808 614.871, 141.835 615.319 C 141.861 615.768, 159.572 631.451, 181.192 650.172 C 202.811 668.893, 221.290 684.910, 222.256 685.765 C 223.222 686.621, 224.245 687.088, 224.530 686.804 C 224.943 686.390, 258 566.389, 258 565.301 C 258 564.261, 249.789 567.656, 198.643 589.841 M 845.020 594.752 C 835.263 599.654, 834.344 612.342, 843.344 617.903 C 852.372 623.483, 863.986 617.183, 863.996 606.700 C 864.001 601.435, 861.891 597.869, 857.212 595.239 C 852.418 592.545, 849.634 592.433, 845.020 594.752 M 204.500 618.046 C 198.966 620.748, 194.500 623.549, 194.500 624.319 C 194.500 625.593, 206.939 637, 208.328 637 C 208.870 637, 216 615.323, 216 613.678 C 216 612.552, 214.902 612.969, 204.500 618.046 M 345.499 627.181 C 313.543 712.923, 306.426 732.653, 307.162 733.468 C 308.362 734.798, 386.434 763.757, 386.769 762.997 C 386.917 762.661, 382.572 753.187, 377.114 741.943 L 367.190 721.500 377.345 720.943 C 386.046 720.466, 388.453 719.928, 394.155 717.187 C 412.165 708.531, 421.322 686.766, 414.933 667.801 C 411.335 657.122, 403.873 648.511, 394.326 644.023 C 390.249 642.107, 353.482 628.171, 348.245 626.557 C 346.767 626.101, 345.821 626.316, 345.499 627.181 M 695 637.135 C 685.698 638.069, 680.566 639.635, 671.634 644.266 C 657.537 651.574, 646.489 665.348, 642.528 680.552 C 639.164 693.470, 641.575 711.738, 648.327 724.493 C 652.947 733.221, 663.591 744.012, 671.872 748.363 C 698.918 762.576, 735.032 752.797, 750.931 726.957 L 754.053 721.884 727.526 708.976 C 712.937 701.876, 701 695.763, 701 695.390 C 701 695.018, 706.687 683.050, 713.638 668.795 C 720.845 654.015, 725.895 642.515, 725.388 642.036 C 721.882 638.719, 705.516 636.079, 695 637.135 M 363.841 666.524 C 360.087 668.563, 356.999 674.024, 357.004 678.618 C 357.018 693.371, 377.321 696.709, 383.042 682.899 C 387.408 672.359, 374.059 660.974, 363.841 666.524 M 479.621 670.125 C 479.337 671.981, 478.874 688.356, 478.591 706.514 C 478.022 743.034, 478.593 748.806, 483.704 758.199 C 488.499 767.012, 494.328 772.570, 503.590 777.160 C 511.475 781.067, 512.655 781.357, 522.405 781.791 C 534.296 782.320, 543.015 780.312, 551 775.205 C 560.106 769.382, 567.968 758.864, 570.961 748.500 C 572.259 744.005, 574.345 669.916, 573.203 668.850 C 572.817 668.488, 551.718 667.868, 526.319 667.471 L 480.138 666.750 479.621 670.125 M 518.984 723.835 C 515.133 725.863, 512.004 730.993, 512.002 735.282 C 511.997 742.620, 517.964 748.989, 524.849 748.996 C 536.175 749.009, 542.732 736.286, 535.885 727.581 C 531.524 722.036, 525.103 720.613, 518.984 723.835" stroke="none" fill="#000000" fill-rule="evenodd"/>
</svg>