<svg xmlns="http://www.w3.org/2000/svg" width="1056" height="1016" viewBox="0 0 1056 1016" version="1.1">
	<path d="M 418.200 111.200 C 416.595 112.805, 416.687 115.116, 418.620 121.763 C 420.873 129.515, 419.943 135.231, 414.494 147.119 C 411.971 152.623, 409.366 158.785, 408.704 160.813 C 407.545 164.363, 407.127 164.625, 397.500 167.860 C 391.222 169.969, 384.672 171.414, 379.902 171.742 L 372.304 172.265 369.770 168.882 C 363.699 160.779, 361.029 152.203, 361.012 140.750 C 361.001 133.740, 361.185 133, 362.941 133 C 364.090 133, 367.051 135.552, 370.191 139.250 C 373.111 142.688, 377.273 147.075, 379.441 149 L 383.382 152.500 379.331 147 C 377.103 143.975, 374.008 139.115, 372.454 136.200 C 369.658 130.956, 365.501 126, 363.898 126 C 363.443 126, 361.522 127.359, 359.630 129.020 C 352.795 135.021, 351.944 152.872, 357.887 165.572 C 359.599 169.231, 361 172.559, 361 172.969 C 361 173.378, 357.770 174.013, 353.823 174.380 C 338.603 175.794, 329.951 182.480, 321.140 199.632 C 318.306 205.149, 314.915 210.671, 313.603 211.903 C 312.292 213.135, 308.051 214.958, 304.179 215.954 C 288.312 220.035, 286.378 225.189, 292.507 247.054 C 298.632 268.899, 306.191 279.403, 322.106 288.181 C 331.160 293.175, 341.364 300.260, 346.867 305.372 L 350.234 308.500 348.564 305.197 C 345.541 299.218, 332.803 286.926, 322.373 279.921 C 310.765 272.126, 305.453 265.445, 302.017 254.318 C 299.709 246.847, 297.395 231.019, 298.275 228.726 C 298.635 227.787, 301.182 226.700, 304.686 225.989 C 318.295 223.228, 322.442 219.458, 330.595 202.434 C 338.573 185.775, 343.403 182.462, 365.500 178.487 C 381.716 175.570, 392.394 172.819, 398.888 169.886 C 402.402 168.299, 405.830 167, 406.507 167 C 407.192 167, 407.982 168.826, 408.289 171.121 C 409.775 182.200, 415.959 176.810, 421.621 159.500 C 423.844 152.702, 424.251 149.621, 424.328 139 C 424.405 128.300, 424.100 125.708, 422.209 121 C 418.850 112.632, 419.136 111.193, 424.250 110.732 L 428.500 110.349 423.950 110.175 C 421.447 110.079, 418.860 110.540, 418.200 111.200 M 434.559 114.506 C 441.730 118.737, 448.752 126.171, 452.818 133.836 C 456.780 141.307, 460.473 152.172, 474.114 196.500 C 483.985 228.576, 485.543 232.901, 485.823 229 C 487.130 210.797, 476.317 171.059, 462.002 141.455 C 456.924 130.953, 455.299 128.583, 449.316 122.955 C 443.136 117.142, 433.146 111, 429.872 111 C 429.182 111, 431.291 112.578, 434.559 114.506 M 352.749 202.277 C 345.367 204.092, 340.459 211.646, 344.488 214.990 C 346.031 216.270, 345.962 216.350, 347.449 211.552 C 347.695 210.756, 349.369 209.343, 351.168 208.413 C 354.060 206.918, 355.352 206.861, 362.308 207.926 C 366.635 208.588, 370.924 209.383, 371.838 209.691 C 372.752 210, 370.800 208.570, 367.500 206.513 C 360.007 201.843, 357.473 201.116, 352.749 202.277 M 375 211.969 C 375 212.501, 375.675 212.678, 376.500 212.362 C 377.325 212.045, 378 211.609, 378 211.393 C 378 211.177, 377.325 211, 376.500 211 C 375.675 211, 375 211.436, 375 211.969 M 362.692 219 C 358.580 221.750, 354.605 224.007, 353.858 224.015 C 353.111 224.024, 351.825 224.510, 351 225.096 C 348.738 226.703, 357.540 225.289, 361.028 223.486 C 365.137 221.360, 373.376 214, 371.645 214 C 370.832 214, 366.804 216.250, 362.692 219 M 535.136 291.206 C 540.421 295.994, 553.390 303.381, 561.756 306.369 C 573.242 310.472, 587.151 312.903, 605.500 314.015 C 641.544 316.200, 652.551 318.103, 666.883 324.631 C 689.752 335.046, 714.633 358.752, 735.491 390 C 757.967 423.672, 777.013 463.528, 784.978 493.555 C 788.337 506.220, 791.898 530.991, 793.199 550.750 C 796.527 601.281, 785.106 635.346, 755.712 662.560 C 731.206 685.249, 701.753 701.713, 662 714.943 C 621.796 728.323, 586.526 733.758, 547 732.666 C 510.735 731.663, 483.430 726.978, 449.250 715.893 C 421.024 706.739, 406.038 699.810, 382 684.803 C 344.094 661.139, 329.906 656.100, 301 656.037 C 290.557 656.014, 284.584 656.601, 275.250 658.566 C 261.050 661.556, 294.035 639.806, 313.935 633.057 C 342.925 623.226, 379.426 622.549, 420.857 631.074 C 431.869 633.339, 432.554 633.380, 428.260 631.513 C 406.377 622.001, 371.971 616.085, 346.500 617.456 C 301.790 619.861, 268.148 637.467, 247.564 669.232 L 245.794 671.963 251.647 669.923 C 260.587 666.808, 277.871 664.764, 289 665.506 C 311.011 666.973, 337.195 674.402, 358 685.082 C 364.325 688.329, 376.700 695.499, 385.500 701.015 C 410.893 716.931, 431.218 726.648, 453 733.284 C 520.542 753.859, 598.641 752.775, 660.818 730.398 C 697.061 717.355, 740.001 688.889, 762.651 662.890 C 780.581 642.309, 791.929 619.931, 798.346 592.500 C 801.898 577.321, 803.003 567.071, 802.982 549.526 C 802.931 507.588, 789.234 462.046, 762.073 413.500 C 746.289 385.289, 730.382 363.412, 713 346.012 C 700.156 333.154, 689.776 325.345, 675.872 318.080 C 656.353 307.880, 642.422 305.418, 609 306.261 C 593.642 306.649, 584.928 306.421, 578.496 305.463 C 564.281 303.347, 547.201 297.373, 535.910 290.570 L 531.500 287.912 535.136 291.206 M 359.102 368.530 C 358.882 377.198, 355.721 398.422, 351.372 420.440 C 345.876 448.263, 344.917 461.035, 347.465 472.488 C 352.655 495.815, 365.871 516.366, 402.458 558 C 417.198 574.773, 425.625 586.179, 424.556 587.910 C 424.141 588.580, 419.958 589.004, 413.691 589.010 C 381.735 589.043, 356.771 593.869, 332.500 604.709 C 321.077 609.810, 318.290 611.732, 325.532 609.514 C 347.255 602.862, 365.285 600.517, 394.500 600.546 C 452.720 600.603, 500.412 611.028, 567 638.251 C 612.624 656.904, 627.124 660.746, 655.516 661.702 C 669.015 662.157, 674.186 661.941, 680.534 660.654 C 696.611 657.397, 709.146 650.907, 723.353 638.487 C 732.896 630.143, 734.615 627.032, 725.644 634.339 C 714.098 643.744, 700.339 650.388, 685.615 653.670 C 674.532 656.140, 653.043 655.870, 640 653.096 C 624.065 649.707, 597.367 640.426, 568.500 628.240 C 540.644 616.482, 530.914 612.833, 507.708 605.447 L 492.917 600.739 488.425 593.120 C 475.467 571.139, 470.259 555.583, 469.294 535.977 C 468.244 514.648, 473.399 498.974, 485.783 485.847 C 499.267 471.553, 514.126 463.527, 536.500 458.452 C 546.256 456.239, 581.035 455.358, 594.701 456.977 C 600.432 457.656, 605.338 457.996, 605.602 457.731 C 606.366 456.968, 583.790 450.978, 573.689 449.265 C 562.262 447.327, 539.958 447.113, 530 448.846 C 499.304 454.189, 475.278 469.295, 462.703 491.158 C 455.078 504.414, 450.982 525.816, 452.954 542.095 C 454.859 557.820, 458.036 568.779, 465.093 583.968 C 467.572 589.303, 468.947 593.419, 468.412 593.905 C 467.677 594.574, 440.066 590.601, 439.490 589.743 C 437.659 587.019, 419.298 562.942, 404.944 544.443 C 365.391 493.468, 357.609 479.398, 355.468 454.986 C 354.658 445.751, 356.262 428.890, 359.651 411 C 362.560 395.646, 362.924 380.343, 360.613 370.500 C 359.255 364.714, 359.201 364.643, 359.102 368.530 M 115 424.993 L 115 439.229 85.250 438.602 C 68.887 438.257, 50.498 437.715, 44.384 437.397 L 33.267 436.819 32.771 450.660 C 32.498 458.272, 32.474 464.725, 32.719 465 C 32.963 465.275, 50.789 465.866, 72.331 466.313 C 93.874 466.760, 112.132 467.335, 112.904 467.591 C 114.061 467.974, 114.198 470.496, 113.678 481.907 L 113.048 495.758 128.774 496.219 C 137.423 496.473, 144.556 496.639, 144.625 496.590 C 144.964 496.345, 146.627 412.437, 146.300 412.044 C 146.092 411.793, 138.964 411.401, 130.460 411.172 L 115 410.757 115 424.993 M 995.122 430.838 C 985.014 441.927, 976.126 451, 975.372 451 C 974.312 451, 974 448.978, 974 442.125 C 974 437.244, 973.719 431.844, 973.375 430.125 L 972.750 427 957.228 427 L 941.706 427 942.262 439.066 C 942.730 449.239, 942.581 451.223, 941.312 451.710 C 940.293 452.102, 933.511 446.026, 920.307 432.894 L 900.808 413.500 901.414 437.500 C 901.747 450.700, 902.299 469.066, 902.640 478.314 L 903.261 495.128 914.381 494.559 C 920.496 494.246, 945.750 493.493, 970.500 492.886 C 995.250 492.279, 1015.620 491.674, 1015.767 491.541 C 1016.050 491.285, 1014.058 414.497, 1013.706 412.088 C 1013.593 411.311, 1005.230 419.749, 995.122 430.838 M 894.008 553.185 C 893.453 554.458, 890.592 562.025, 887.651 570 L 882.303 584.500 899.651 590.901 C 909.193 594.422, 917 597.845, 917 598.509 C 917 599.173, 905.262 607.953, 890.915 618.021 C 871.038 631.970, 865.200 636.532, 866.381 637.193 C 869.310 638.832, 969.270 675.183, 969.537 674.706 C 969.600 674.593, 975.646 658.075, 982.974 638 C 990.301 617.925, 997.320 598.769, 998.571 595.431 L 1000.847 589.362 950.173 570.808 C 922.303 560.604, 898.491 551.943, 897.258 551.562 C 895.506 551.022, 894.796 551.376, 894.008 553.185 M 107.724 568.566 C 86.163 573.790, 67.267 592.517, 63.091 612.799 C 59.946 628.076, 64.611 647.456, 74.605 660.636 C 95.878 688.689, 139.624 689.981, 164.030 663.277 C 183.623 641.839, 182.989 608, 162.568 585.287 C 149.087 570.293, 127.616 563.747, 107.724 568.566 M 115.462 611.064 C 108.677 613.037, 104.181 621.449, 106.133 628.518 C 109.768 641.683, 127.350 643.893, 133.520 631.961 C 135.947 627.269, 135.433 620.256, 132.368 616.238 C 128.205 610.780, 122.473 609.025, 115.462 611.064 M 820.124 710.578 C 810.903 713.058, 801.106 718.926, 793.516 726.516 C 781.951 738.081, 775.848 752.094, 775.726 767.365 C 775.603 782.751, 781.049 795.068, 793.486 807.532 C 805.811 819.884, 818.232 825.183, 834.777 825.145 C 850.369 825.109, 862.134 819.890, 874.521 807.514 C 893.034 789.017, 897.109 765.391, 885.820 742 C 881.552 733.156, 868.053 719.684, 859 715.232 C 846.533 709.102, 832.055 707.368, 820.124 710.578 M 197.186 753.395 L 139.872 773.688 177.678 810.765 L 215.484 847.843 216.709 844.672 C 217.383 842.927, 226.010 818.325, 235.880 790 C 245.751 761.675, 254.305 737.263, 254.889 735.750 C 255.473 734.237, 255.624 733.023, 255.225 733.051 C 254.826 733.079, 228.709 742.233, 197.186 753.395 M 827.020 753.752 C 819.006 757.778, 816.162 769.473, 821.619 775.959 C 829.097 784.846, 842.301 783.827, 847.248 773.980 C 849.595 769.309, 849.452 765.306, 846.750 760.036 C 842.949 752.623, 834.575 749.956, 827.020 753.752 M 199.550 778.948 C 192.978 781.561, 187.412 784.265, 187.181 784.957 C 186.719 786.344, 201.778 802, 203.575 802 C 204.885 802, 215.214 776.155, 214.419 774.868 C 213.587 773.522, 212.334 773.866, 199.550 778.948 M 665.500 813.531 C 644.600 821.996, 627.157 829.054, 626.737 829.215 C 626.153 829.440, 636.280 856.010, 637.670 857.898 C 637.831 858.117, 647.630 854.405, 659.446 849.648 C 671.262 844.892, 681.620 841, 682.465 841 C 683.413 841, 684 841.906, 684 843.369 C 684 844.672, 680.625 865.327, 676.500 889.269 C 672.375 913.211, 669 933.021, 669 933.291 C 669 933.671, 733.002 908.274, 742.500 904.125 C 744.127 903.414, 743.102 902.829, 737 900.987 C 725.021 897.369, 725.840 899.403, 729.059 881.283 L 731.863 865.500 718.296 831.750 C 710.834 813.188, 704.452 798.032, 704.114 798.070 C 703.776 798.109, 686.400 805.067, 665.500 813.531 M 344.125 801.148 C 343.628 802.442, 334.553 825.325, 323.958 852 C 313.363 878.675, 304.651 901.315, 304.597 902.312 C 304.518 903.785, 311.494 906.905, 341.959 919.019 C 362.561 927.212, 379.559 933.774, 379.732 933.601 C 379.905 933.429, 375.971 924.575, 370.991 913.927 C 366.011 903.278, 362.064 893.964, 362.219 893.228 C 362.429 892.229, 365.166 891.841, 373.026 891.695 C 382.689 891.516, 384.096 891.232, 390.185 888.232 C 398.672 884.051, 406.938 875.353, 410.092 867.285 C 413.209 859.312, 413.250 846.772, 410.184 839 C 407.351 831.819, 401.654 824.459, 395.844 820.473 C 392.135 817.930, 375.994 811.032, 346.264 799.285 C 345.584 799.016, 344.621 799.855, 344.125 801.148 M 359.299 837.960 C 355.115 840.510, 352.652 845.376, 352.632 851.132 C 352.613 856.517, 354.694 860.233, 359.304 863.044 C 363.164 865.397, 370.873 865.634, 374.953 863.524 C 384.262 858.711, 384.253 842.823, 374.938 837.827 C 370.443 835.416, 363.371 835.476, 359.299 837.960 M 480.017 876.250 C 480.037 915.464, 480.624 920.762, 486.084 931.007 C 496.895 951.289, 523.882 959.382, 545.933 948.954 C 557.886 943.301, 567.597 930.852, 569.989 918.114 C 570.552 915.115, 571 896.826, 571 876.864 L 571 841 525.500 841 L 480 841 480.017 876.250 M 519.071 894.695 C 514.270 897.222, 511.790 901.048, 511.305 906.676 C 510.564 915.274, 515.814 921.817, 524.136 922.665 C 532.426 923.509, 538.955 917.911, 539.695 909.324 C 540.436 900.726, 535.186 894.183, 526.864 893.335 C 523.878 893.031, 521.417 893.461, 519.071 894.695" stroke="none" fill="#ffffff" fill-rule="evenodd"/>
</svg>